<svg xmlns="http://www.w3.org/2000/svg" viewBox="0 0 1200 630">
  <rect width="1200" height="630" fill="#0d1117"/>
  <rect x="60" y="60" width="1080" height="510" rx="24" fill="#121923" stroke="#2a3950"/>
  <g transform="translate(120 185)">
    <circle cx="70" cy="70" r="62" fill="#101823" stroke="#6bb8ff" stroke-width="8"/>
    <circle cx="70" cy="70" r="38" fill="none" stroke="#6bb8ff" stroke-width="8" stroke-dasharray="82 22"/>
    <circle cx="70" cy="70" r="9" fill="#6bb8ff"/>
  </g>
  <g transform="translate(260 175)">
    <path d="M76 8 24 28v38c0 34 22 56 52 71 30-15 52-37 52-71V28Z" fill="#6bb8ff"/>
    <path d="M49 71c8-10 18-10 27 0m0 0c9-10 19-10 28 0m-28 0v21" stroke="#0d1117" stroke-width="7" fill="none" stroke-linecap="round"/>
    <circle cx="76" cy="68" r="6" fill="#0d1117"/>
  </g>
  <text x="430" y="230" fill="#e8edf5" font-size="56" font-family="Arial, Helvetica, sans-serif" font-weight="700">360 Solutions</text>
  <text x="430" y="300" fill="#96d1ff" font-size="40" font-family="Arial, Helvetica, sans-serif" font-weight="600">TLS Guard</text>
  <text x="430" y="360" fill="#a4b1c4" font-size="30" font-family="Arial, Helvetica, sans-serif">Operator-grade assurance for authorized endpoints</text>
  <text x="430" y="412" fill="#a4b1c4" font-size="30" font-family="Arial, Helvetica, sans-serif">Verification-focused assurance for operator teams.</text>
</svg>
